PathFileType	4	(X/Y/Z)	C:\Users\Biomechanik\SynologyDrive\AlexP\Athlete_03\Athlete_3_22_07_06\sq_85_EMG\marker_experimental.trc
DataRate	CameraRate	NumFrames	NumMarkers	Units	OrigDataRate	OrigDataStartFrame	OrigNumFrames
200.000000	200.000000	4	58	mm	200.000000	772	1544
Frame#	Time	BL			BR			GLAB			RFHD			LFHD			C7			T6			SPINMOL			SPINM2			SPINM3			T12			BELTOL			BELT2			BELT3			SACROL			SACR2			SACR3			LTHOL			LTH2			LTH3			LSHAOL			LSHA2			LSHA3			LHEE			LTOE			LM5			RTHOL			RTH2			RTH3			RSHAOL			RSHA2			RSHA3			RHEE			RTOE			RM5			STRN			XIPH			LACR			LUAOL			LUA2			LUA3			LLAOL			LLA2			LLA3			LWRU			RACR			RUAOL			RUA3			RLAOL			RLA2			RLA3			RWRU			USERMO0			USERMO1			USERMO2			USERMO3			USERMO4			USERMO5			
		X1	Y1	Z1	X2	Y2	Z2	X3	Y3	Z3	X4	Y4	Z4	X5	Y5	Z5	X6	Y6	Z6	X7	Y7	Z7	X8	Y8	Z8	X9	Y9	Z9	X10	Y10	Z10	X11	Y11	Z11	X12	Y12	Z12	X13	Y13	Z13	X14	Y14	Z14	X15	Y15	Z15	X16	Y16	Z16	X17	Y17	Z17	X18	Y18	Z18	X19	Y19	Z19	X20	Y20	Z20	X21	Y21	Z21	X22	Y22	Z22	X23	Y23	Z23	X24	Y24	Z24	X25	Y25	Z25	X26	Y26	Z26	X27	Y27	Z27	X28	Y28	Z28	X29	Y29	Z29	X30	Y30	Z30	X31	Y31	Z31	X32	Y32	Z32	X33	Y33	Z33	X34	Y34	Z34	X35	Y35	Z35	X36	Y36	Z36	X37	Y37	Z37	X38	Y38	Z38	X39	Y39	Z39	X40	Y40	Z40	X41	Y41	Z41	X42	Y42	Z42	X43	Y43	Z43	X44	Y44	Z44	X45	Y45	Z45	X46	Y46	Z46	X47	Y47	Z47	X48	Y48	Z48	X49	Y49	Z49	X50	Y50	Z50	X51	Y51	Z51	X52	Y52	Z52	X53	Y53	Z53	X54	Y54	Z54	X55	Y55	Z55	X56	Y56	Z56	X57	Y57	Z57	X58	Y58	Z58	

773	3.86	132.8115539550781	1260.934204101563	-2276.794677734375	173.3124084472656	1275.694091796875	-54.55900573730461	496.3954467773438	1446.466674804688	-1138.151245117188	433.2561340332031	1461.527099609375	-1064.204956054688	436.9382629394531	1463.34326171875	-1218.558227539062	254.5743713378906	1369.318481445312	-1146.080078125	107.8278884887695	1236.453491210938	-1154.333251953125	86.43437957763672	1209.678588867188	-1160.124755859375	52.36995697021484	1154.465698242188	-1113.3896484375	61.94777297973633	1152.940185546875	-1162.421508789062	46.20106506347656	1101.536010742188	-1162.2626953125	9.13681697845459	1064.77734375	-1163.31396484375	-6.274844646453857	1004.027221679688	-1113.882690429688	-10.35608100891113	1005.731262207031	-1163.851440429688	-21.5636043548584	931.8372802734376	-1195.234130859375	-14.34214496612549	940.0557861328126	-1145.218139648438	-45.50527572631836	882.8964843750001	-1157.657958984375	113.8606948852539	722.4995727539064	-1425.605590820312	80.09360504150391	649.9869384765626	-1423.197875976562	125.9774932861328	663.1076660156251	-1439.500732421875	117.6316909790039	328.7684936523439	-1531.233276367188	79.99311065673828	259.3343811035157	-1535.078491210938	127.6559753417969	269.1885681152345	-1545.94091796875	65.98052215576172	36.4140510559083	-1507.961059570312	270.861572265625	48.77844619750986	-1550.387817382812	211.6601104736328	24.81804084777842	-1647.471557617188	86.31304931640625	691.38525390625	-912.4973754882812	133.2196502685547	639.220947265625	-874.4775390625	89.09186553955078	631.086669921875	-896.8818969726562	67.41968536376953	322.1162414550782	-808.8357543945312	105.4929885864258	259.2090759277344	-779.4017944335938	61.37981796264648	260.9244689941407	-803.4750366210938	34.78916168212891	35.18190765380864	-839.9701538085938	229.3634796142578	45.6411628723145	-764.3604125976562	162.8922271728516	36.55499267578129	-678.7567138671875	348.396728515625	1222.638305664062	-1158.089233398438	326.2891540527344	1069.197631835938	-1153.844970703125	223.1919860839844	1308.907470703125	-1340.542236328125	90.73194122314453	1217.036987304688	-1363.449096679688	57.22868347167969	1174.702514648438	-1324.908813476562	56.88404846191406	1171.722900390625	-1375.538452148438	43.74978637695312	1138.502075195312	-1450.714111328125	87.05400085449219	1157.1171875	-1495.507690429688	83.25080871582031	1188.284545898438	-1456.545288085938	129.8354949951172	1234.996704101562	-1507.3330078125	233.1699523925781	1308.434448242188	-970.3035888671874	112.1283950805664	1196.448120117188	-930.7937622070311	56.26451873779297	1170.032958984375	-938.1737060546874	65.99439239501953	1156.744140625	-857.1135253906249	108.8378601074219	1204.191162109375	-866.0454711914061	103.7653579711914	1188.293212890625	-817.5609741210936	134.8074340820312	1230.638305664062	-800.0358886718749	0.0653064027428627	0.02128290012478829	-0.07491129636764526	0.02131180092692375	0.02827499993145466	-0.02314330078661442	0.01179580017924309	0.02656199969351292	-0.04607290029525757	0.06381689757108688	0.1870349943637848	-0.8242700099945068	0.3794690072536469	2.946870088577271	-0.3901480138301848	2.897500038146973	0	0	
774	3.865	132.7211303710938	1260.89111328125	-2276.84814453125	173.4340209960938	1275.388549804688	-54.59622573852531	496.4445495605469	1445.822875976562	-1138.240234375	433.2631225585938	1460.872436523438	-1064.31689453125	436.9889221191406	1462.588745117188	-1218.679931640625	254.6626129150391	1368.61376953125	-1146.020874023438	107.8377685546875	1235.69580078125	-1154.303833007812	86.45912933349609	1208.955444335938	-1160.0712890625	52.36784362792969	1153.791259765625	-1113.299926757812	61.90544128417969	1152.24560546875	-1162.3388671875	46.19917297363281	1100.97802734375	-1162.148315429688	9.014100074768066	1064.490844726562	-1163.187866210938	-6.64222240447998	1003.804931640625	-1113.758544921875	-10.7510290145874	1005.536315917969	-1163.724487304688	-22.32926750183105	931.7097778320314	-1195.095947265625	-15.10491466522217	939.8871459960939	-1145.0927734375	-46.36593246459961	882.7888793945314	-1157.562255859375	113.5011596679688	722.2566528320314	-1425.968994140625	80.0638427734375	649.5783081054689	-1423.907836914062	125.9393539428711	662.9676513671876	-1440.01708984375	118.483757019043	328.7962951660157	-1531.881958007812	80.60930633544922	259.4834289550782	-1535.5966796875	128.3187561035156	269.1509094238282	-1546.431640625	65.96340179443359	36.41407012939462	-1507.963623046875	270.8752136230469	48.7681770324708	-1550.333129882812	211.6743316650391	24.88342475891123	-1647.424682617188	86.50167083740234	690.9920043945312	-911.8948974609375	133.9393157958984	639.3302001953125	-873.8475952148438	89.78799438476562	630.7730712890625	-896.0468139648438	68.70494079589844	322.2427368164063	-807.9537963867188	106.5238571166992	259.0293273925782	-778.8340454101562	62.36650848388672	261.0499572753907	-802.7998046875	34.7993278503418	35.19726181030278	-839.979248046875	229.4008636474609	45.60619354248052	-764.4364624023438	162.9386901855469	36.61399841308598	-678.83984375	348.307373046875	1221.890258789062	-1158.110595703125	326.0527954101562	1068.414794921875	-1153.827880859375	223.1768493652344	1308.208740234375	-1340.528076171875	90.62908935546875	1216.437377929688	-1363.353881835938	57.11587142944336	1174.078735351562	-1324.856689453125	56.72749328613281	1171.143920898438	-1375.490234375	43.55099105834961	1138.024291992188	-1450.752319335938	86.88962554931641	1156.601318359375	-1495.537353515625	83.10894012451172	1187.772094726562	-1456.576293945312	129.7572326660156	1234.456787109375	-1507.3759765625	233.1668701171875	1307.8056640625	-970.3485717773436	112.1899566650391	1195.728515625	-930.8196411132811	56.31069183349609	1169.280639648438	-938.1362304687499	66.10234069824219	1156.051879882812	-857.0740356445311	108.9033889770508	1203.531860351562	-866.0469970703124	103.8824768066406	1187.648681640625	-817.5601806640624	134.9140319824219	1230.039306640625	-800.0711669921874	0.06667689979076385	0.02238800004124642	-0.07828430086374283	0.02209769934415817	0.02880039997398853	-0.02390000037848949	0.01187380030751228	0.02810619957745076	-0.04777700081467628	0.06577160209417343	0.1850380003452302	-0.8250359892845154	0.3791149854660034	2.946609973907471	-0.3853540122509001	2.898930072784424	0	0	
775	3.87	132.6357574462891	1260.743896484375	-2276.901123046875	173.5638885498047	1274.976928710938	-54.6352005004882	496.4966735839844	1445.093017578125	-1138.325073242188	433.2777404785156	1460.127075195312	-1064.418701171875	437.0365295410156	1461.756958007812	-1218.792358398438	254.7563171386719	1367.835083007812	-1145.9541015625	107.8442916870117	1234.875122070312	-1154.277587890625	86.47909545898438	1208.167602539062	-1160.0205078125	52.35887145996094	1153.052856445312	-1113.214111328125	61.85575103759766	1151.487548828125	-1162.259887695312	46.18636322021484	1100.355102539062	-1162.036254882812	8.886680603027344	1064.143310546875	-1163.058349609375	-7.015065670013428	1003.529052734375	-1113.622924804688	-11.15221309661865	1005.281982421875	-1163.586181640625	-23.10511016845703	931.5219726562501	-1194.92236328125	-15.8768138885498	939.6651611328126	-1144.934936523438	-47.23947143554688	882.6278686523439	-1157.42431640625	113.1018447875977	721.9757690429689	-1426.322875976562	80.0233154296875	649.1220092773439	-1424.609741210938	125.8775863647461	662.7998657226564	-1440.53857421875	119.3665313720703	328.8193664550782	-1532.559448242188	81.25167083740234	259.6307373046876	-1536.1279296875	129.0056610107422	269.1068725585939	-1546.943725585938	65.95039367675781	36.41661071777353	-1507.962890625	270.8879699707031	48.75798797607431	-1550.28173828125	211.6880340576172	24.94601058959971	-1647.380859375	86.68256378173828	690.5866088867188	-911.2473754882812	134.6419830322266	639.4278564453125	-873.1724853515625	90.46937561035156	630.4530639648438	-895.1641235351562	69.97750854492188	322.3613891601563	-807.0200805664062	107.5513153076172	258.8416137695313	-778.234130859375	63.34406280517578	261.1702880859376	-802.0761108398438	34.81241989135742	35.21628189086919	-839.9855346679688	229.4364166259766	45.5718498229981	-764.50439453125	162.9815673828125	36.66602325439457	-678.9127197265625	348.216552734375	1221.05615234375	-1158.12841796875	325.7987670898438	1067.545288085938	-1153.8037109375	223.1660614013672	1307.442504882812	-1340.509155273438	90.52737426757812	1215.779052734375	-1363.259521484375	56.99971008300781	1173.39990234375	-1324.8046875	56.56918334960938	1170.510009765625	-1375.442016601562	43.35137176513672	1137.487915039062	-1450.786010742188	86.72380828857422	1156.024536132812	-1495.56396484375	82.96958160400391	1187.1982421875	-1456.603637695312	129.6822814941406	1233.849731445312	-1507.41650390625	233.1671447753906	1307.09912109375	-970.3908081054686	112.2361526489258	1194.958251953125	-930.8543090820311	56.34178161621094	1168.485717773438	-938.1086425781249	66.19376373291016	1155.314453125	-857.0419921874999	108.9631500244141	1202.817749023438	-866.0544433593749	103.9892501831055	1186.948852539062	-817.5652465820311	135.0163421630859	1229.374877929688	-800.1084594726561	0.06827180087566376	0.02359130047261715	-0.08214029669761658	0.02282229997217655	0.0294514000415802	-0.02489079907536506	0.01195700000971556	0.02958290092647076	-0.04936080053448677	0.0672881007194519	0.183105006814003	-0.8254920244216919	0.3791030049324036	2.94638991355896	-0.3807289898395537	2.900010108947754	0	0	
776	3.875	132.5551910400391	1260.488403320313	-2276.95361328125	173.7021179199219	1274.455932617188	-54.67563629150383	496.5510864257812	1444.276000976562	-1138.403686523438	433.2974853515625	1459.2890625	-1064.509887695312	437.0819396972656	1460.846435546875	-1218.894775390625	254.8553619384766	1366.980346679688	-1145.883422851562	107.8475875854492	1233.99267578125	-1154.256225585938	86.49372100830078	1207.31689453125	-1159.974487304688	52.34146118164062	1152.251953125	-1113.13525390625	61.79763031005859	1150.668212890625	-1162.187744140625	46.16072082519531	1099.668701171875	-1161.9306640625	8.752703666687012	1063.734375	-1162.930053710938	-7.394592761993408	1003.199035644531	-1113.48046875	-11.56002521514893	1004.967224121094	-1163.441284179688	-23.89096832275391	931.2697753906251	-1194.717163085938	-16.65714836120605	939.3870239257814	-1144.748168945312	-48.12416839599609	882.4097290039064	-1157.246215820312	112.6573333740234	721.6530761718751	-1426.665405273438	79.96730804443359	648.6142578125001	-1425.297607421875	125.7863235473633	662.6001586914064	-1441.06201171875	120.2745590209961	328.8373413085939	-1533.263793945312	81.91611480712891	259.775360107422	-1536.671752929688	129.7124938964844	269.0564880371095	-1547.47607421875	65.94167327880859	36.42190170288095	-1507.959716796875	270.8992614746094	48.74818038940439	-1550.234985351562	211.7009124755859	25.00440216064463	-1647.340698242188	86.84364318847656	690.1674194335938	-910.55859375	135.3143463134766	639.5127563476562	-872.4540405273438	91.1239013671875	630.1248168945312	-894.2378540039062	71.22966003417969	322.4710083007813	-806.039306640625	108.5689468383789	258.6464843750001	-777.6052856445312	64.30645751953125	261.2843933105469	-801.3079833984375	34.82818984985352	35.23891830444341	-839.9886474609375	229.4692993164062	45.53881454467778	-764.5631103515625	163.0200805664062	36.71007537841801	-678.97412109375	348.1249389648438	1220.133056640625	-1158.144897460938	325.52685546875	1066.586303710938	-1153.775268554688	223.1604614257812	1306.6064453125	-1340.487670898438	90.42677307128906	1215.060424804688	-1363.168823242188	56.87984466552734	1172.665161132812	-1324.755126953125	56.40903091430664	1169.820190429688	-1375.396240234375	43.15137481689453	1136.89111328125	-1450.816772460938	86.55703735351562	1155.385131835938	-1495.588989257812	82.83332061767578	1186.560913085938	-1456.628540039062	129.6114044189453	1233.173583984375	-1507.454711914062	233.1727600097656	1306.3125	-970.4313354492186	112.2682495117188	1194.135131835938	-930.8971557617186	56.35908889770508	1167.64697265625	-938.0911254882811	66.2694091796875	1154.529663085938	-857.0181274414061	109.0177307128906	1202.046752929688	-866.0682373046874	104.0862350463867	1186.191040039062	-817.5766601562499	135.1146087646484	1228.642211914062	-800.1481323242186	0.07014200091362	0.0248789992183447	-0.0863121971487999	0.02350969985127449	0.03024560026824474	-0.02607909962534904	0.01204229984432459	0.03091070055961609	-0.05071679875254631	0.06838089972734451	0.1813369989395142	-0.8254830241203308	0.3793419897556305	2.946180105209351	-0.3762260079383848	2.900759935379028	0	0	
